<svg id="Layer_1" data-name="Layer 1" xmlns="http://www.w3.org/2000/svg" viewBox="0 0 66.05 56.62"><defs><style>.cls-1{fill:#fbfbfb;}</style></defs><title>parrot</title><path class="cls-1" d="M67.68,61.43l-15-14.11-6.93-7.06a21.84,21.84,0,0,0-1.36-3.76c-2.55-5.42-7.25-9.4-14-11.83L27.85,22V17.46A10.78,10.78,0,0,0,17.08,6.69,6.83,6.83,0,0,0,11.7,9.3c-1.75.06-6.9.51-8.92,3.89C1.4,15.51,1.8,18.6,4,22.37a1.07,1.07,0,0,0,.94.54h0a1.06,1.06,0,0,0,.94-.58,9,9,0,0,1,.54-.92A7.18,7.18,0,0,0,9,22.6a8.85,8.85,0,0,0,1.18.22V30A19.23,19.23,0,0,0,28.87,49.17l-1.81,4.36H21.49a1.09,1.09,0,0,0,0,2.18H32.91a1.09,1.09,0,1,0,0-2.18H29.42l1.81-4.35h0a50.61,50.61,0,0,0,12.26,8.24,1.12,1.12,0,0,0,.47.11,1,1,0,0,0,.41-.09,1.08,1.08,0,0,0,.61-.63c0-.1.26-.73.53-1.75l7.18,2.79a1.09,1.09,0,0,0,.79-2L46,52.91a31.49,31.49,0,0,0,.49-3.73h5l10.62,10-5.15-2a1.09,1.09,0,1,0-.79,2l10.37,4a1.07,1.07,0,0,0,.39.07,1.09,1.09,0,0,0,.75-1.88ZM10.22,20.62a5.93,5.93,0,0,1-2.5-.95A4.18,4.18,0,0,1,9.63,18.3a1.31,1.31,0,0,1,.59,0Zm0-7.07v2.54a3.44,3.44,0,0,0-1.1.09c-1.72.41-3.2,2.09-4.13,3.43q-1.49-3.36-.34-5.3c.88-1.47,2.83-2.17,4.31-2.49a14.56,14.56,0,0,1,1.55-.25A6.82,6.82,0,0,0,10.22,13.55Zm2.17,0h0a4.67,4.67,0,0,1,1.53-3.46c4,1.71,6.48,5,6.48,8.46,0,4-3.23,7.58-8,9ZM43.31,54.9a49.69,49.69,0,0,1-10.86-7.57l-.08-.08a56.92,56.92,0,0,1-7.61-8.54,1.1,1.1,0,0,0-1.52-.24A1.08,1.08,0,0,0,23,40a60.43,60.43,0,0,0,6,7A17.07,17.07,0,0,1,12.39,30v-.13c6-1.58,10.19-6.11,10.19-11.28a10.24,10.24,0,0,0-2.4-6.49,13.48,13.48,0,0,0-3.76-3.15,4.87,4.87,0,0,1,.66,0,8.6,8.6,0,0,1,8.59,8.59v5a1.08,1.08,0,0,0,.31.76L29,26.37h0l.05.05,0,0,.06.05h0l.08,0h0l.09,0h0l.06,0c6.26,2.22,10.62,5.85,12.95,10.78A19.32,19.32,0,0,1,43.68,41a.75.75,0,0,0,0,.16A28.72,28.72,0,0,1,43.31,54.9ZM46.59,47a27.06,27.06,0,0,0-.15-2.94L49.33,47Z" transform="translate(-1.98 -6.69)"/></svg>