<svg id="Layer_1" data-name="Layer 1" xmlns="http://www.w3.org/2000/svg" viewBox="0 0 45.89 51.01"><defs><style>.cls-1{fill:#fbfbfb;}</style></defs><title>cat</title><path class="cls-1" d="M57.4,25.62l-.67-2.7a5.09,5.09,0,0,0,1.13-3.19,5.92,5.92,0,0,0-.29-2c.5-2,.35-6.9.33-7.48a.78.78,0,0,0-.26-.56.76.76,0,0,0-.57-.2,2.77,2.77,0,0,0-2,1.05l-1.8,2.28a31,31,0,0,0-4.91,0l-1.8-2.28a2.77,2.77,0,0,0-2-1.05.74.74,0,0,0-.57.2.78.78,0,0,0-.26.56c0,.58-.17,5.52.33,7.48a5.68,5.68,0,0,0-.29,2,5.2,5.2,0,0,0,1,3.08l-4.25,6.06-1.21.39A41.41,41.41,0,0,0,17.11,46.35c.18-4.08,1.09-11.84,5.11-18.79,1.76-3,2.23-5.8,1.4-8.2-1.13-3.25-4.36-5-6.19-5.69a2.14,2.14,0,0,0-1.65,4A6.36,6.36,0,0,1,19.37,21a5.79,5.79,0,0,1-.75,4.65C13.29,35.41,11.19,44,12.38,51.21,12.9,54.34,14.76,56,17.67,56a5.52,5.52,0,0,0,.57,0,4.6,4.6,0,0,0,1.33,1.09,9.08,9.08,0,0,0,0,2.5.79.79,0,0,0,.61.65,34.59,34.59,0,0,0,5.41.26c3,0,6.48-.1,8.95-.19a1.8,1.8,0,0,0,1.45-.8,1.83,1.83,0,0,0,.21-1.65,3.07,3.07,0,0,0-2.66-2l-3.08-.22a12.5,12.5,0,0,0,2.12-1.74L43,49.72,44,51.63l-.47,4.27A2.43,2.43,0,0,0,44,57.66a2.35,2.35,0,0,0,1.61.86l1.81.19.11.22a2.41,2.41,0,0,0,2.13,1.32h3.78a1.54,1.54,0,0,0,1.34-.77,1.56,1.56,0,0,0,0-1.55,3,3,0,0,0-2.07-1.44l-.44-.08-1.84-7.83,5.16-9.32A18.84,18.84,0,0,0,57.4,25.62ZM45.22,11.44l.08.09,2.05,2.61a.78.78,0,0,0,.7.29,29.4,29.4,0,0,1,5.47,0,.76.76,0,0,0,.69-.29l2.06-2.61.08-.09A27.61,27.61,0,0,1,56,17.5a.8.8,0,0,0,0,.55,4,4,0,0,1,.27,1.64,2.73,2.73,0,0,1-1.54,2.73,3.75,3.75,0,0,0-1.27.82l-.81.78a7.3,7.3,0,0,1-1.88,1,7.08,7.08,0,0,1-1.87-1l-.81-.78a3.75,3.75,0,0,0-1.27-.82,2.75,2.75,0,0,1-1.55-2.73,4.19,4.19,0,0,1,.28-1.64.86.86,0,0,0,0-.55A27.61,27.61,0,0,1,45.22,11.44ZM13.93,51c-1.13-6.83.91-15.1,6.07-24.6a7.22,7.22,0,0,0,.86-5.91c-.43-1.25-1.55-3-4.43-4.26a.6.6,0,0,1-.33-.72.56.56,0,0,1,.35-.34.58.58,0,0,1,.41,0c1.58.64,4.35,2.1,5.27,4.75.68,1.95.25,4.27-1.27,6.89A42.18,42.18,0,0,0,15.91,42a49,49,0,0,0-.41,5,15.53,15.53,0,0,0,.86,5.57l0,0a14.81,14.81,0,0,0,.81,1.86C15.34,54.28,14.29,53.15,13.93,51Zm31.84,6a.8.8,0,0,1-.55-.3.77.77,0,0,1-.17-.59l.19-1.8L46.61,57Zm4.11-10.65-.59-2.52a2.74,2.74,0,0,1,.33-2.09l3.64-6a.78.78,0,1,0-1.34-.81l-3.65,6a4.33,4.33,0,0,0-.52,3.26l3.1,13.12a.76.76,0,0,0,.62.59l1,.17a1.42,1.42,0,0,1,1,.65H49.66a.81.81,0,0,1-.72-.45L41.85,43.79a2.82,2.82,0,0,1-.29-1.24V36.39a.79.79,0,0,0-1.57,0v6.16a4.43,4.43,0,0,0,.44,1.93l1.88,3.82-8.08,3.24a7.16,7.16,0,0,0,.5-1.48,6.64,6.64,0,0,0-.3-3.86.79.79,0,0,0-1.44.66c.1.2,2.13,5-5.38,8.56l-2.3-.16a.78.78,0,0,0-.84.72.79.79,0,0,0,.72.85l8.25.59a1.48,1.48,0,0,1,1.29,1,.24.24,0,0,1,0,.23.27.27,0,0,1-.2.11,128.52,128.52,0,0,1-13.43,0C20.88,55.58,23,51.05,23,51a.77.77,0,0,0-.37-1,.79.79,0,0,0-1,.37,27.42,27.42,0,0,0-1.74,5.08c-1.52-1.26-2.44-4.49-2.74-6A39.92,39.92,0,0,1,39.76,30.76l1.46-.47a.78.78,0,0,0,.41-.3L46,23.77l.28.12a2.29,2.29,0,0,1,.75.48l.81.78a6.82,6.82,0,0,0,3,1.42,6.92,6.92,0,0,0,3-1.42l.81-.78a2.35,2.35,0,0,1,.74-.48l.05,0L55.87,26A17.23,17.23,0,0,1,54.2,38.5Z" transform="translate(-12.05 -9.5)"/></svg>