<svg id="Layer_1" data-name="Layer 1" xmlns="http://www.w3.org/2000/svg" viewBox="0 0 68.41 57.29"><defs><style>.cls-1{fill:#fbfbfb;}</style></defs><title>dog</title><path class="cls-1" d="M68.75,12.6a2.41,2.41,0,0,0-1.71-1l-5.21-.48-.58-1.57a2.18,2.18,0,0,0-1.48-1.34L53,6.43a2.25,2.25,0,0,0-1.38.08l-.05,0L44.74,9.46a1.09,1.09,0,0,0-.28,1.84l1.6,1.34-1.41,3.42a12.33,12.33,0,0,1-11,7.59l-17.49.56-1.71-1.46a4.1,4.1,0,0,1-1.17-4.54l.48-1.29a2.71,2.71,0,0,0-5-2.07l-.29.63a12,12,0,0,0,.87,11.61,7.66,7.66,0,0,0-2.83,4.72,147.13,147.13,0,0,0-1,15.55,2.14,2.14,0,0,1-1.25,1.88,4.3,4.3,0,0,0-2.48,3.21l-.95,5.7a3.56,3.56,0,0,0,3.51,4.13H7.72a2.06,2.06,0,0,0,2-2.28,4.17,4.17,0,0,0-2.52-3.39A7.4,7.4,0,0,1,11,53.37,10.81,10.81,0,0,0,16.71,48l2.9-6.08a12.54,12.54,0,0,1,8.69-.31c1.86.53,3.63,1.13,5.34,1.7,3.19,1.08,5.82,2,7.83,2,.3,5.11.51,11,.07,12.73a4.34,4.34,0,0,0,.42,3.4,5.43,5.43,0,0,0,3.12,2.2,1.15,1.15,0,0,0,.26,0h2.52a2,2,0,0,0,1.93-2.6A5.36,5.36,0,0,0,47,57.78l3.57-12.59a14.25,14.25,0,0,0,3.65-6.85l3.41-15.8c1.42-.35,3.42-.72,5.83-1.1a6.4,6.4,0,0,0,5.24-4.92l.44-2A2.37,2.37,0,0,0,68.75,12.6Zm-18-3.36L50.56,13a.27.27,0,0,1-.16.24.27.27,0,0,1-.28,0l-2.89-2.42ZM10.47,16.39l.29-.63a.54.54,0,0,1,.32-.28.52.52,0,0,1,.64.68l-.47,1.29a6.3,6.3,0,0,0,1.8,7l.48.41a15.52,15.52,0,0,0-2.36,1.05A9.85,9.85,0,0,1,10.47,16.39ZM67,14l-.44,2a4.21,4.21,0,0,1-3.43,3.23,63.59,63.59,0,0,0-6.72,1.32,3.6,3.6,0,0,1-2.7-.33c-1.44-.81-2.35-1.35-2.35-1.35a1.11,1.11,0,0,0-1.51.37,1.09,1.09,0,0,0,.38,1.5s.94.57,2.42,1.39a5.74,5.74,0,0,0,2.66.73l-3.23,15a12,12,0,0,1-3.26,6,1.18,1.18,0,0,0-.28.47L44.63,58.15a1.09,1.09,0,0,0,.75,1.35l.15,0a3.13,3.13,0,0,1,2.08,1.91H45.49a3.68,3.68,0,0,1-1.19-.65,2,2,0,0,1-.63-2.26c.87-3.49-.35-18.47-.49-20.17a1.1,1.1,0,0,0-1.21-1,1.12,1.12,0,0,0-1,1.23c.09,1.11.21,2.7.33,4.48a33.53,33.53,0,0,1-7-1.89c-1.66-.56-3.53-1.19-5.44-1.73a15.88,15.88,0,0,0-8-.32l.81-1.7A1.12,1.12,0,0,0,21.25,36a1.1,1.1,0,0,0-1.49.5L14.74,47a8.66,8.66,0,0,1-4.61,4.32,9.62,9.62,0,0,0-5.28,5.15l-.13.31a1.14,1.14,0,0,0-.09.55,1.09,1.09,0,0,0,.76.95l.81.25a2,2,0,0,1,1.36,1.54H4.38a1.38,1.38,0,0,1-.87-.29A1.36,1.36,0,0,1,3,58.51l1-5.7a2.11,2.11,0,0,1,1.22-1.58,4.32,4.32,0,0,0,2.54-3.82,150.84,150.84,0,0,1,1-15.25c.67-4.21,6.52-5.59,7.24-5.75l17.82-.57A14.53,14.53,0,0,0,46.67,16.9l1.15-2.79.89.75a2.46,2.46,0,0,0,4-1.73L53,8.7l6.18,1.65.31.83-1,.07a1.13,1.13,0,0,0-1.07,1.1,1.11,1.11,0,0,0,1.1,1.09h.07a31.33,31.33,0,0,1,4.94.07l3.34.31a.21.21,0,0,1,.14.08A.17.17,0,0,1,67,14Z" transform="translate(-0.8 -6.35)"/></svg>