<svg id="Layer_1" data-name="Layer 1" xmlns="http://www.w3.org/2000/svg" viewBox="0 0 57.71 31.68"><defs><style>.cls-1{fill:#fbfbfb;}</style></defs><title>hamster</title><path class="cls-1" d="M60,25.14c-3.09-4-7.25-6-12.73-6H47.2c-4.87,0-10.39,1.5-15.71,3.21a4.38,4.38,0,0,0-3.78-2.44,5.41,5.41,0,0,0-5.43,4.76c-7,2.36-12.65,4.85-13.45,5.21a4.26,4.26,0,0,0-2.68,3.93c.33,3.32,1.2,5.77,2.69,7.49,1.64,1.9,4,2.9,7.17,3.06l2.4.24a6.55,6.55,0,0,0-1.95,4.66,1.19,1.19,0,0,0,1.19,1.19h9.56a3.5,3.5,0,0,0,3.5-3.5V45.12h4.75a6.51,6.51,0,0,0-1.83,4.53,1.19,1.19,0,0,0,1.2,1.19H52.72c3.1,0,6-1.78,8-4.88a19,19,0,0,0,3.1-9.41A17.19,17.19,0,0,0,60,25.14ZM58.73,44.67c-.91,1.41-2.9,3.78-6,3.78H36.19a4.19,4.19,0,0,1,4-3h4.27a1.15,1.15,0,0,0,.26,0,1.19,1.19,0,0,0-.13-2.37h-.11a5.83,5.83,0,0,1-1.71-.28,6,6,0,0,1-2.34-1.44,5.85,5.85,0,0,1-1.72-4.16,9.41,9.41,0,0,1,6-8.76,1.2,1.2,0,0,0,.69-1.54,1.18,1.18,0,0,0-1.54-.69,11.74,11.74,0,0,0-7.59,11,8.23,8.23,0,0,0,2.13,5.54H30.71V39.31a1.19,1.19,0,1,0-2.38,0V47a1.12,1.12,0,0,1-1.12,1.12H19a4.17,4.17,0,0,1,4-3h.51l.09,0h.11l.05,0,.06,0,0,0,.06,0,0,0,.05,0,.05,0,0,0,0,0,.05,0,0,0,.05,0,0,0,0-.05s0,0,0,0a.21.21,0,0,0,0-.06l0,0,0-.06s0,0,0,0,0,0,0-.06l0,0s0,0,0-.06,0,0,0-.05a.13.13,0,0,1,0-.06V44h0a.13.13,0,0,0,0-.06v-.06h0a1.34,1.34,0,0,0-.05-.35l0-.07s0,0,0,0l0-.08v0l0-.07,0,0,0-.06,0,0,0-.05,0,0,0,0-.05,0,0,0-.07,0h0L24,42.87l0,0-.07,0a1.3,1.3,0,0,0-.34-.08h0L16.22,42h-.06c-2.51-.12-4.32-.85-5.52-2.25S8.8,36.41,8.53,33.6a2.16,2.16,0,0,1,.94-1.4l.25-.08c.06,0,6.17-2.8,13.85-5.34a1.19,1.19,0,0,0,1-1.18,3.09,3.09,0,0,1,3.11-3.28c.81,0,1.61.75,2,1.92A5.21,5.21,0,0,1,30,26c0,2-1.06,3.66-2.31,3.66a1.2,1.2,0,0,0,0,2.39c2.64,0,4.7-2.66,4.7-6.05a7.64,7.64,0,0,0-.12-1.36c5.1-1.64,10.37-3.07,14.91-3.07h.07c4.76,0,8.21,1.62,10.85,5C64.15,34.42,60.56,41.84,58.73,44.67Z" transform="translate(-6.14 -19.16)"/></svg>