<svg id="Layer_1" data-name="Layer 1" xmlns="http://www.w3.org/2000/svg" viewBox="0 0 34.38 31.57"><defs><style>.cls-1{fill:#fbfbfb;}</style></defs><title>other</title><path class="cls-1" d="M30,28.62c2.24,0,3.7-2.34,3.7-4.7s-1.47-4.71-3.7-4.71-3.69,2.34-3.69,4.71S27.73,28.62,30,28.62Zm0-8.06c1.28,0,2.35,1.54,2.35,3.36S31.24,27.28,30,27.28s-2.35-1.54-2.35-3.36S28.69,20.56,30,20.56Z" transform="translate(-17.81 -19.21)"/><path class="cls-1" d="M40,28.62c2.23,0,3.69-2.34,3.69-4.7S42.27,19.21,40,19.21s-3.7,2.34-3.7,4.71S37.81,28.62,40,28.62Zm0-8.06c1.27,0,2.35,1.54,2.35,3.36S41.31,27.28,40,27.28s-2.35-1.54-2.35-3.36S38.76,20.56,40,20.56Z" transform="translate(-17.81 -19.21)"/><path class="cls-1" d="M24.13,36.05c1.94-1.12,2-3.87.85-5.92s-3.62-3.34-5.55-2.22-2,3.86-.85,5.91S22.21,37.16,24.13,36.05Zm-4-7c1.29-.75,3,.42,3.72,1.73h0c.75,1.31.93,3.34-.36,4.09s-3-.43-3.72-1.74S18.81,29.81,20.1,29.07Z" transform="translate(-17.81 -19.21)"/><path class="cls-1" d="M45.87,36.05c1.93,1.12,4.37-.18,5.55-2.23s1.07-4.81-.85-5.91-4.37.18-5.55,2.22S43.94,34.94,45.87,36.05Zm.31-5.25c.76-1.3,2.43-2.48,3.72-1.73s1.11,2.77.36,4.08-2.43,2.48-3.72,1.74S45.42,32.12,46.18,30.8Z" transform="translate(-17.81 -19.21)"/><circle class="cls-1" cx="28.41" cy="28.01" r="0.67"/><path class="cls-1" d="M22.32,45a6.49,6.49,0,0,0,5.42,5.64A6.73,6.73,0,0,0,33,49.43a3.33,3.33,0,0,1,4,0,6.7,6.7,0,0,0,5.26,1.25,7.07,7.07,0,0,0,2.13-.74.67.67,0,0,0-.64-1.18,5.46,5.46,0,0,1-1.73.6,5.39,5.39,0,0,1-4.21-1,4.68,4.68,0,0,0-5.62,0,5.39,5.39,0,0,1-4.21,1,5.16,5.16,0,0,1-4.33-4.51,5.25,5.25,0,0,1,2.89-5.6,4.56,4.56,0,0,0,2.16-2.11c1.36-2.81,3.72-4.49,6.3-4.49s4.94,1.68,6.3,4.49a4.56,4.56,0,0,0,2.16,2.11,5.23,5.23,0,0,1,2.94,5A.67.67,0,0,0,47,45a.68.68,0,0,0,.7-.65A6.56,6.56,0,0,0,44,38a3.28,3.28,0,0,1-1.53-1.48c-1.47-3-4.21-5.25-7.51-5.25s-6,2.22-7.51,5.25A3.28,3.28,0,0,1,26,38a6.64,6.64,0,0,0-3.64,7Z" transform="translate(-17.81 -19.21)"/></svg>