<svg id="Layer_1" data-name="Layer 1" xmlns="http://www.w3.org/2000/svg" viewBox="0 0 50.96 56.62"><defs><style>.cls-1{fill:#fbfbfb;}</style></defs><title>rabbit</title><g id="Outline"><path class="cls-1" d="M54.82,41.61V35.89a6.47,6.47,0,0,0,5.66-6.51,6.55,6.55,0,0,0-3-5.35l-4.31-2.88L53,21l.36-1.42A16.72,16.72,0,0,0,52.53,9a3.8,3.8,0,0,0-5-2,3.76,3.76,0,0,0-2,2c-.12.28-.23.56-.34.85a17.07,17.07,0,0,0-1.82-2.07,3.91,3.91,0,0,0-3.63-1,3.81,3.81,0,0,0-2.85,3.69,16.54,16.54,0,0,0,3.4,10.06l2.33,3.05a7.31,7.31,0,0,0-1,3.75v3.28L34.69,34.1,27,35.64A14.72,14.72,0,0,0,15.62,46.47a7.11,7.11,0,0,0-1.38-.15H10.46a1,1,0,0,0-.94,1V51a6.61,6.61,0,0,0,6.61,6.61h1c.19.34.38.68.59,1L20,62.82a.94.94,0,0,0,.82.49h17a.94.94,0,0,0,.94-.94V60.48a3.78,3.78,0,0,0-2.6-3.59l.48-1.26,1.81-.4.33,1.66a1,1,0,0,0,.14.34l3.78,5.66a.94.94,0,0,0,.78.42H54.82a.94.94,0,0,0,.94-.94v-.95A3.77,3.77,0,0,0,52,57.65h-.36L51,56.48V50.54A12.53,12.53,0,0,0,54.82,41.61ZM47.26,9.74a1.92,1.92,0,0,1,3.53,0,14.83,14.83,0,0,1,.76,9.41l-.28,1.09a7.43,7.43,0,0,0-2.2-.34h-.32l-.46-2.77a16.4,16.4,0,0,0-1.77-5.21A15.24,15.24,0,0,1,47.26,9.74ZM11.41,51V48.21h2.83a4.7,4.7,0,0,1,1,.12,15.45,15.45,0,0,0,1,7.43h-.15A4.72,4.72,0,0,1,11.41,51Zm29.2,5.3-.31-1.52L43,54.23l.53,2.66a1,1,0,0,0,.14.34l2.8,4.19H44ZM52,59.54a1.88,1.88,0,0,1,1.88,1.88H48.72l-3.39-5.08-1.86-9.26-1.85.37,1,4.92L35.74,53.9a.94.94,0,0,0-.68.59l-.83,2.22h-2a9.26,9.26,0,0,0-5.93-9.84L25,46.39l-.66,1.76,1.3.49a7.36,7.36,0,0,1,4.7,7.93.66.66,0,0,0,0,.14v.94a.94.94,0,0,0,.94.94H35a1.89,1.89,0,0,1,1.89,1.89v.94H21.4l-2-3.68,0-.05c-.29-.46-.55-.93-.79-1.4a13.78,13.78,0,0,1-1.31-8.46A12.82,12.82,0,0,1,27.38,37.49l7.8-1.56a.85.85,0,0,0,.24-.09L43,32.07a.94.94,0,0,0,.52-.84V27.36a5.54,5.54,0,0,1,1-3.24,1,1,0,0,0,0-1.12l-2.73-3.58a14.7,14.7,0,0,1-3-8.92,1.93,1.93,0,0,1,1.44-1.86,2,2,0,0,1,1.85.51,14.58,14.58,0,0,1,2.63,3.37v0a14.76,14.76,0,0,1,1.73,4.91l.6,3.64a.93.93,0,0,0,1.08.78h0a5.6,5.6,0,0,1,3.37.47l0,0a6.6,6.6,0,0,1,.64.36l4.31,2.88a4.67,4.67,0,0,1,2.12,3.8,4.59,4.59,0,0,1-4.52,4.66h-.2a.94.94,0,0,0-.94.94v6.61a10.55,10.55,0,0,1-1.89,6V46.32H49.16V56.71a.9.9,0,0,0,.1.42L50.2,59a.94.94,0,0,0,.84.52Z" transform="translate(-9.52 -6.69)"/><circle class="cls-1" cx="41.52" cy="20.76" r="1.89"/></g></svg>